<svg xmlns="http://www.w3.org/2000/svg" viewBox="0 0 1787 122" width="1787" height="122">
    <style>
        tspan { white-space:pre }
        .shp0 { opacity: 0.98;fill: #000000 }
    </style>
    <path id="Path 0" fill-rule="evenodd" class="shp0"
          d="M68.05 0.87L75.5 1.5L76 97L72.75 96.36C70.96 96 69.27 95.52 69 95.27C68.72 95.03 68.4 73.69 68.28 47.85L68.05 0.87ZM762.38 0.89L768.5 1.5L768.75 15.25C768.94 25.45 769.32 29 770.25 29C770.94 29 774.2 28.01 777.5 26.81C783.02 24.79 783.81 24.73 787.39 26.06C789.53 26.85 792.12 28.62 793.15 30C794.18 31.37 795.46 35.2 796 38.5C796.55 41.8 796.99 56.09 797 96L794.75 95.98C793.51 95.98 791.92 95.64 791.21 95.23C790.23 94.68 789.79 88.13 789.39 68C789.09 53.42 788.44 39.81 787.93 37.75C787.36 35.47 786.12 33.56 784.75 32.88C782.95 31.99 781.16 32.24 768.99 36.5L768.99 65.75C769 90.86 768.79 95.07 767.5 95.5C766.67 95.77 765.1 96 764 96C762.15 96 761.99 95.29 761.86 86.25C761.79 80.89 761.6 64.8 761.44 50.5C761.28 36.2 761.42 19.19 761.76 12.7L762.38 0.89ZM1112.25 1.1C1116.66 1.01 1117.02 1.18 1117.25 3.6C1117.39 5.03 1117.05 6.35 1116.5 6.53C1115.95 6.7 1113.36 7.11 1110.75 7.43C1107.37 7.83 1105.71 8.58 1105 10C1104.45 11.1 1103.77 15.15 1103 26L1114 26L1114 33L1103 33L1103.02 76.25C1103.03 108.89 1102.73 119.81 1101.82 120.75C1101.15 121.44 1099.56 122 1096 122L1096 33L1092.75 32.75C1089.86 32.53 1089.5 32.17 1089.5 29.5C1089.5 26.83 1089.86 26.47 1096 26L1096 17.75C1096.01 10.96 1096.39 8.95 1098.15 6.37C1099.45 4.47 1101.7 2.84 1103.9 2.22C1105.88 1.66 1109.64 1.16 1112.25 1.1ZM1543 1L1545.75 0.98C1547.26 0.97 1549.07 1.54 1549.77 2.23C1550.66 3.13 1551.03 7.27 1551.02 16.25C1551.01 23.26 1551.34 29 1551.75 29C1552.16 29 1555.2 28.03 1558.5 26.84C1564.02 24.85 1564.85 24.79 1568.95 26.09C1571.98 27.05 1573.98 28.46 1575.19 30.5C1576.35 32.45 1577.3 37.16 1577.92 44C1578.44 49.77 1578.9 63.84 1579 96L1576.25 95.98C1574.74 95.98 1572.98 95.64 1572.35 95.23C1571.53 94.72 1571.09 86.22 1570.85 66.45C1570.54 41.82 1570.29 38.08 1568.75 35.7C1567.79 34.22 1566.21 32.76 1565.25 32.47C1564.29 32.17 1560.66 32.96 1550.9 36.5L1550.94 65C1550.96 86.32 1550.66 93.83 1549.74 94.79C1549.06 95.51 1547.26 96.07 1543 96L1543 1ZM844.82 2.74C845.74 3.05 847.08 3.8 847.79 4.41C848.51 5.01 849.07 6.74 849.04 8.25C849.02 9.76 848.29 11.67 847.43 12.5C846.56 13.32 844.76 14 843.43 14C842.09 14 840.28 13.21 839.41 12.25C838.48 11.23 837.96 9.27 838.16 7.52C838.38 5.64 839.35 4.11 840.82 3.36C842.09 2.71 843.89 2.43 844.82 2.74ZM1624 2C1624.55 2 1626.16 2.56 1627.57 3.25C1628.98 3.94 1630.36 5.62 1630.64 7C1630.94 8.43 1630.48 10.46 1629.58 11.75C1628.58 13.17 1626.99 13.99 1625.25 13.97C1623.74 13.96 1621.7 13.17 1620.72 12.22C1619.74 11.28 1618.95 9.49 1618.97 8.25C1618.99 7.01 1619.9 5.1 1621 4C1622.1 2.9 1623.45 2 1624 2ZM708 16C710 16 711.33 16.67 712 18C712.55 19.1 712.77 21.35 712 26L718 26C723.54 26 724 26.17 724.04 28.25C724.07 29.49 723.51 31.03 722.79 31.67C722.08 32.32 719.56 33 712.86 33.5L712.97 59.5C713.06 80.47 713.36 85.93 714.54 87.75C715.73 89.59 716.91 90 721 90C723.75 90 726 90.45 726 91C726 91.55 726.11 92.78 726.25 93.73C726.44 95.07 725.44 95.63 721.75 96.23C719.04 96.67 715.28 96.57 713 96C710.45 95.36 708.37 94.02 707.25 92.3C705.7 89.91 705.47 86.28 705 33L702.5 33C700.31 33 700 32.57 700 29.5C700 26.43 700.31 26 702.5 26C704.83 26 705 25.67 705 21C705 16.11 705.07 16 708 16ZM1488.34 16C1489.8 16 1491.67 16.22 1492.5 16.5C1493.54 16.85 1494 18.39 1494 26L1505 26L1504.75 29.25C1504.5 32.44 1504.4 32.5 1494 33L1494.06 57.75C1494.09 74.16 1494.51 83.68 1495.31 86C1496.47 89.41 1496.65 89.51 1502.25 89.75C1507.79 89.99 1508 90.1 1508.02 92.75C1508.03 95.26 1507.62 95.57 1503.27 96.26C1500.64 96.68 1497.15 96.78 1495.5 96.49C1493.85 96.19 1491.49 94.95 1490.26 93.73C1488.52 92 1487.79 89.6 1487 83C1486.44 78.32 1486.02 65.27 1486.17 33.5L1483.58 33.25C1481.35 33.03 1481 32.53 1481 29.5C1481 26.28 1481.24 26 1487 26L1486.34 21C1485.7 16.09 1485.73 16 1488.34 16ZM18.5 25.55C21.25 25.86 24.51 26.31 25.75 26.56C26.99 26.8 28.01 27.56 28.03 28.25C28.05 28.94 27.26 30.3 26.28 31.29C24.84 32.73 23.56 32.95 19.6 32.42C15.92 31.93 14.13 32.17 12.35 33.39C11.06 34.27 9.55 36.69 9.01 38.75C8.46 40.81 8.01 50.82 8.01 61C8.01 71.17 8.46 81.19 9.01 83.25C9.55 85.31 11.01 87.69 12.25 88.54C13.96 89.71 16.12 89.95 28 89L28 92C28 94.89 27.78 95.04 21.75 96.11C18.31 96.72 13.92 96.93 12 96.58C10.07 96.22 7.53 95.16 6.35 94.22C5.17 93.27 3.4 90.7 2.42 88.5C0.99 85.26 0.57 80.81 0.21 65C-0.08 52.51 0.18 43.16 0.93 39C1.57 35.42 2.87 31.48 3.8 30.23C4.74 28.98 7.3 27.29 9.5 26.47C12.1 25.51 15.25 25.19 18.5 25.55ZM134 25.05C136.8 25.02 139.72 25.76 141.75 27C143.54 28.1 145.75 30.69 146.67 32.75C147.78 35.24 148.53 40.57 149.5 60.78L139 61.54C133.22 61.96 127.82 62.05 127 61.74C126.17 61.43 124.9 61.47 124.16 61.84C123.1 62.36 122.98 64.74 123.58 73.5C124.2 82.53 124.71 84.93 126.42 86.89C128.16 88.89 129.49 89.3 134.5 89.39C137.8 89.45 142.3 89.27 144.5 89C148.38 88.52 148.5 88.59 148.5 91.5C148.5 94.26 148.13 94.57 143.5 95.65C140.75 96.29 136.25 96.84 133.5 96.88C130.48 96.93 126.82 96.17 124.25 94.98C121.66 93.77 119.32 91.73 118.25 89.75C116.72 86.9 116.5 83.4 116.5 61.5C116.5 37.81 116.61 36.28 118.67 32.25C119.87 29.91 120.99 27.99 121.17 27.98C121.35 27.98 123.3 27.32 125.5 26.53C127.7 25.74 131.52 25.07 134 25.05ZM125.57 37.02C124.53 38.69 124.02 42.04 124.01 47.25L124 55L141.37 54.5C141 44.42 140.46 39.81 139.94 37.75C139.42 35.68 138.1 33.55 137 33C135.9 32.45 134.21 32.01 133.25 32.01C132.29 32.02 130.51 32.59 129.3 33.28C128.1 33.97 126.42 35.66 125.57 37.02ZM205.5 25.18C207.15 25.15 210.06 25.65 211.97 26.31C213.89 26.96 216.01 28.62 216.71 30C217.64 31.85 217.97 40.71 218 96L215 96C212.65 96 211.73 95.38 209.5 90.24L204.5 93.66C201.75 95.54 198.49 97.06 197.25 97.04C196.01 97.02 193.86 96.44 192.48 95.75C191.09 95.06 189.51 93.15 188.97 91.5C188.42 89.85 187.7 82.65 187.36 75.5C186.85 64.71 187.02 61.86 188.37 58.75C189.55 56.03 191.16 54.46 194.25 53.04C196.59 51.95 201.32 50.72 211.02 49.5L211.01 43.25C211 39.81 210.52 35.76 208.88 31.5L200.69 32.3C194.35 32.92 192.33 32.81 191.77 31.8C191.36 31.08 191.02 29.71 191.02 28.75C191 27.38 192.26 26.81 196.75 26.13C199.91 25.65 203.85 25.22 205.5 25.18ZM196.62 60C195.18 61.26 194.92 63.37 194.96 73.25C194.98 79.71 195.45 86.12 196 87.5C196.55 88.87 197.79 90.02 198.75 90.04C199.71 90.06 202.69 88.6 205.36 86.79L210.22 83.5C210.15 58.65 209.98 57.49 208.32 57.36C207.32 57.28 204.66 57.5 202.42 57.86C200.17 58.21 197.57 59.17 196.62 60ZM279.5 25.09C280.6 25.05 283.07 25.44 285 25.96C286.92 26.48 289.29 27.71 290.25 28.7C291.22 29.69 292.45 32.3 292.98 34.5C293.51 36.7 294.3 51.47 295.5 96.16L287.5 95.5L286.97 66.5C286.61 46.48 286.06 36.8 285.22 35.25C284.55 34.01 282.99 32.75 281.75 32.45C280.51 32.14 276.57 32.93 266.5 36.51L266 96L263.75 96.02C262.51 96.03 260.93 95.46 260.23 94.77C259.26 93.79 258.97 85.67 259 26L262 26C263.78 26 265.2 26.61 265.5 27.5C265.77 28.32 266.79 28.99 267.75 28.97C268.71 28.96 271.3 28.1 273.5 27.05C275.7 26.01 278.4 25.13 279.5 25.09ZM401 25.62C403.47 25.88 406.96 26.3 408.75 26.55C410.54 26.8 412 27.45 412 28C412 28.55 411.55 29.9 411 31C410.1 32.8 409.32 32.94 403.03 32.42C397.15 31.93 395.73 32.13 394 33.67C392.86 34.68 391.69 37.29 391.38 39.5C390.93 42.74 391.31 44.17 393.36 47C394.75 48.92 398.95 52.91 402.69 55.86C406.44 58.8 410.81 63.08 412.41 65.36C415.2 69.31 415.31 69.88 414.88 78C414.52 84.82 413.95 87.27 411.97 90.41C410.61 92.56 408.37 94.72 407 95.22C405.62 95.73 402.92 96.16 401 96.19C399.07 96.22 394.69 95.96 385 95L385 88L402.5 89.28L404.75 86.39C405.99 84.8 407.25 81.47 407.56 79C407.87 76.52 407.65 73.26 407.06 71.75C406.48 70.24 401.92 65.51 396.93 61.25C391.26 56.4 387.15 52 385.95 49.5C384.89 47.3 384.02 43.7 384.02 41.5C384.02 39.3 384.44 35.92 384.96 34C385.48 32.07 386.71 29.7 387.7 28.73C388.69 27.75 391.07 26.55 393 26.04C394.92 25.54 398.52 25.35 401 25.62ZM472.5 25.31C475.8 25.52 479.81 26.33 481.42 27.1C483.02 27.87 485.27 30.3 486.42 32.5C488.36 36.24 488.5 38.11 488.5 61C488.5 83.53 488.34 85.82 486.5 89.42C485.4 91.58 483.37 94.03 482 94.88C480.62 95.72 476.57 96.62 473 96.87C467.31 97.28 465.91 97.01 461.75 94.67C457.84 92.47 456.78 91.24 455.75 87.75C454.91 84.88 454.5 75.87 454.5 60C454.5 39.71 454.74 35.99 456.25 32.75C457.47 30.13 459.29 28.38 462.25 26.96C465.49 25.4 467.93 25.01 472.5 25.31ZM463.65 37.05C462.27 39.51 462 43.27 462.01 59.75C462.01 70.61 462.46 81.19 463.01 83.25C463.55 85.31 465.01 87.68 466.25 88.51C467.49 89.34 469.96 90.01 471.75 90.01C473.66 90 476.08 89.07 477.64 87.75C480.06 85.68 480.36 84.56 481.32 74C482.01 66.44 482.05 58.15 481.43 49.78C480.66 39.22 480.16 36.72 478.5 35C477.4 33.87 474.7 32.72 472.5 32.44C470.3 32.17 467.78 32.43 466.9 33.03C466.01 33.62 464.55 35.43 463.65 37.05ZM552.5 25.56C554.7 25.84 557.85 27.03 562.5 30.38L570.23 27.59C576.07 25.48 578.88 24.97 581.73 25.48C583.8 25.85 586.51 26.79 587.75 27.57C588.99 28.36 590.5 30.69 591.11 32.75C591.78 34.99 592.38 48.5 593 96L590.25 96.04C588.74 96.07 586.97 95.51 586.33 94.79C585.51 93.89 585.06 85.1 584.83 65.5C584.59 45.51 584.14 36.86 583.25 35.25C582.56 34.01 580.99 32.73 579.75 32.4C578.51 32.06 574.8 32.66 565.5 35.67L565 96L562 96C559.73 96 558.76 95.39 558 93.5C557.42 92.06 557.01 80.29 557.02 65.75C557.03 51.39 556.59 39.1 556.02 37.25C555.35 35.13 554.04 33.64 552.25 32.96C550.06 32.14 548.23 32.39 536.99 36.5L537 66.25C537 95.33 536.96 96 535 96C533.9 96 532.32 95.77 531.5 95.5C530.21 95.07 530 90.28 530 26L533 26C534.78 26 536.2 26.61 536.5 27.5C536.77 28.32 537.79 28.99 538.75 28.97C539.71 28.96 542.3 28.08 544.5 27.01C547.25 25.68 549.75 25.22 552.5 25.56ZM651 25.25C654.64 25.45 657.6 26.31 659.75 27.78C662.38 29.58 663.19 31 663.98 35.25C664.51 38.14 665.07 45.08 665.5 60.84L639.78 62.5L640.17 73C640.48 81.41 640.95 84.05 642.53 86.28C643.95 88.29 645.61 89.2 648.5 89.58C650.7 89.86 655.35 89.74 658.83 89.3C662.85 88.79 665.35 88.86 665.7 89.5C665.99 90.05 665.99 91.4 665.68 92.5C665.27 93.99 663.65 94.82 659.31 95.76C656.12 96.45 651.47 97.01 649 97.01C646.52 97 642.96 96.21 641.07 95.25C639.19 94.29 636.84 92.37 635.86 91C634.87 89.62 633.61 85.57 633.04 82C632.48 78.42 632.02 69.2 632.02 61.5C632.02 53.8 632.5 44.57 633.09 41C633.68 37.42 634.8 33.26 635.58 31.75C636.36 30.24 638.91 28.08 641.25 26.97C644.32 25.5 647.03 25.02 651 25.25ZM642.66 35.83C641.77 37.42 641.07 41.74 640.92 46.5L640.67 54.5L658 55C657.96 46.09 657.54 41.7 657.03 39.5C656.52 37.3 655.06 34.69 653.8 33.71C652.53 32.72 650.6 31.99 649.5 32.07C648.4 32.16 646.74 32.44 645.82 32.69C644.9 32.94 643.47 34.36 642.66 35.83ZM912 25.1C913.37 25.07 916.41 25.93 918.75 27.02C922.11 28.59 923.24 29.78 924.14 32.75C924.84 35.06 925.42 47.92 926 96L923.25 96.02C921.74 96.03 919.93 95.46 919.23 94.77C918.27 93.81 917.97 87.18 918 67.5C918.01 53.2 917.68 39.96 917.26 38.08C916.84 36.21 915.43 33.96 914.13 33.08C911.92 31.61 911.27 31.67 897.98 36.5L898 96L895.25 96.02C893.74 96.03 891.93 95.46 891.23 94.77C890.26 93.79 889.97 85.67 890 26L893.5 26C895.72 26 897.18 26.55 897.5 27.5C897.77 28.32 898.79 28.97 899.75 28.93C900.71 28.89 903.3 28.02 905.5 27C907.7 25.98 910.62 25.12 912 25.1ZM992.25 25.04C1004.81 25 1005 25.03 1005.02 27.25C1005.03 28.49 1004.49 30.06 1003.82 30.75C1003.15 31.44 1001.79 32 1000.8 32C999.4 32 999.15 32.5 999.66 34.25C1000.03 35.49 1000.5 43.02 1000.72 51C1001.04 62.43 1000.79 66.35 999.57 69.5C998.72 71.7 997.01 74.15 995.76 74.94C994.44 75.78 989.65 76.61 984.22 76.94C977.53 77.34 974.67 77.92 973.98 79C973.46 79.82 973.02 82.19 973.02 84.25C973.01 86.31 973.56 88.3 974.25 88.66C974.94 89.02 980.67 89.64 987 90.02C997.78 90.68 998.64 90.89 1000.75 93.36C1002.71 95.66 1003 97.12 1003 104.75C1002.99 111.74 1002.59 114.15 1001 116.75C999.54 119.12 997.85 120.29 994.75 121.07C992.41 121.66 986.9 122 982.5 121.82C974.59 121.5 974.5 121.47 974.25 118.75C974.11 117.24 974.11 115.97 974.25 115.93C974.39 115.89 978.38 115.55 983.13 115.18C989.74 114.66 992.27 114.03 993.91 112.5C995.6 110.93 996.06 109.36 996.03 105.25C996.01 100.94 995.6 99.73 993.75 98.49C992.18 97.44 988.93 96.99 983 96.99C978.32 97 972.92 96.54 971 95.98C969.07 95.41 967.17 94.4 966.77 93.73C966.36 93.05 966.02 89.24 966.02 85.25C966 78.97 966.33 77.6 968.5 75C970.97 72.04 970.98 71.97 969.16 69.25C968.15 67.74 967 65.6 966.6 64.5C966.2 63.4 965.9 57.1 965.95 50.5C965.99 43.9 966.44 36.92 966.96 35C967.47 33.07 968.7 30.72 969.7 29.76C970.69 28.8 973.3 27.36 975.5 26.55C978.2 25.56 983.65 25.07 992.25 25.04ZM974.96 36.19C973.9 37.87 973.5 41.66 973.5 50C973.5 58.05 973.95 62.51 975 64.88C975.82 66.74 977.29 68.65 978.25 69.13C979.21 69.61 982.14 70.01 984.75 70.03C988.34 70.06 989.99 69.54 991.5 67.93C993.31 65.99 993.5 64.41 993.5 51.42C993.5 38.42 993.31 36.86 991.5 34.97C990.25 33.67 987.81 32.73 985 32.46C982.52 32.22 979.58 32.44 978.46 32.95C977.33 33.47 975.76 34.93 974.96 36.19ZM1168 25.25C1171.85 25.45 1175.62 26.29 1177.25 27.3C1178.76 28.23 1180.66 30.01 1181.46 31.25C1182.27 32.49 1183.38 36.65 1183.94 40.5C1184.5 44.35 1184.97 53.8 1184.97 61.5C1184.98 69.2 1184.51 78.42 1183.94 82C1183.36 85.57 1182.24 89.51 1181.44 90.75C1180.65 91.99 1178.76 93.77 1177.25 94.7C1175.64 95.7 1171.8 96.56 1168 96.77C1162.96 97.06 1160.72 96.71 1158 95.21C1156.07 94.14 1153.73 91.97 1152.78 90.39C1151.83 88.8 1150.54 83.67 1149.9 79C1149.19 73.81 1148.95 64.27 1149.27 54.5C1149.57 45.7 1150.37 36.92 1151.05 35C1151.73 33.07 1153.01 30.7 1153.89 29.71C1154.78 28.73 1156.85 27.25 1158.5 26.42C1160.52 25.41 1163.61 25.03 1168 25.25ZM1159.05 36.75C1157.99 38.76 1157.49 44.37 1157.19 57.5C1156.95 68.32 1157.23 77.79 1157.89 81.25C1158.67 85.31 1159.66 87.44 1161.25 88.51C1162.49 89.34 1164.96 90.01 1166.75 90.01C1168.54 90 1170.79 89.61 1171.75 89.13C1172.71 88.65 1174.17 86.74 1175 84.88C1176.17 82.23 1176.5 77.05 1176.5 61C1176.5 47.05 1176.11 39.54 1175.27 37.5C1174.59 35.85 1172.9 33.94 1171.52 33.25C1170.13 32.56 1167.99 32.03 1166.75 32.07C1165.51 32.1 1163.6 32.56 1162.5 33.07C1161.4 33.58 1159.85 35.24 1159.05 36.75ZM1245 25C1245.82 24.98 1247.25 25.54 1248.16 26.23C1249.4 27.18 1249.59 28.06 1248.91 29.75C1248.31 31.24 1247.16 32 1245.5 32C1244.12 32 1240.64 33.38 1232.5 38.13L1233 96L1230.25 96.02C1228.74 96.03 1226.93 95.46 1226.23 94.77C1225.26 93.79 1224.97 85.67 1225 26L1228.23 26.25C1230.41 26.42 1231.79 27.21 1233.5 30.86L1238.5 27.95C1241.25 26.34 1244.17 25.02 1245 25ZM1359 25.42C1360.92 25.63 1363.74 26.29 1365.25 26.9C1366.89 27.56 1368.69 29.51 1369.71 31.75C1371.17 34.97 1371.45 39.79 1372 96L1369 96C1367 96 1365.67 95.33 1365 94C1364.41 92.82 1364.01 81.61 1364.01 66.75C1364.02 52.86 1363.68 39.96 1363.26 38.08C1362.84 36.21 1361.43 33.96 1360.13 33.08C1357.92 31.61 1357.27 31.67 1343.98 36.5L1344 96L1341.75 95.98C1340.51 95.98 1338.99 95.64 1338.37 95.23C1337.57 94.72 1337.12 84.36 1336.5 26.5L1339.75 26.25C1341.92 26.08 1343.17 26.5 1343.5 27.5C1343.77 28.32 1344.79 28.97 1345.75 28.93C1346.71 28.89 1349.3 28 1351.5 26.95C1353.89 25.81 1356.91 25.2 1359 25.42ZM1428 25.01C1430.47 25.01 1434.19 25.46 1436.25 26.01C1438.31 26.55 1441.09 28.24 1442.41 29.75C1443.79 31.31 1445.3 34.87 1445.92 38C1446.52 41.02 1447.02 51.37 1447.02 61C1447.02 71.27 1446.5 80.93 1445.76 84.39C1444.8 88.91 1443.74 90.96 1441.25 93.14C1439.07 95.06 1436.43 96.21 1433.25 96.62C1430.64 96.97 1426.92 97.05 1425 96.8C1423.07 96.55 1420.15 95.44 1418.5 94.33C1416.59 93.05 1414.86 90.53 1413.74 87.41C1412.26 83.3 1411.98 79.04 1411.99 61.25C1411.99 49.56 1412.45 38.09 1413 35.75C1413.56 33.41 1414.79 30.74 1415.75 29.82C1416.71 28.9 1418.85 27.44 1420.5 26.58C1422.15 25.72 1425.52 25.01 1428 25.01ZM1419.5 44.5C1419.08 48.35 1418.97 58.25 1419.24 66.5C1419.52 74.75 1420.25 82.96 1420.87 84.75C1421.49 86.54 1422.9 88.45 1424 89C1425.1 89.55 1427.46 90 1429.25 90.01C1431.04 90.01 1433.51 89.34 1434.75 88.51C1435.99 87.68 1437.45 85.31 1437.99 83.25C1438.54 81.19 1438.97 70.95 1438.94 60.5C1438.91 48.52 1438.45 40.22 1437.69 38.03C1437.04 36.11 1435.38 33.99 1434 33.29C1432.62 32.6 1430.23 32.02 1428.67 32.01C1426.92 32.01 1424.79 33.04 1423.05 34.75C1420.74 37.02 1420.13 38.72 1419.5 44.5ZM1694.75 25.52C1697.09 25.78 1699.9 26.45 1701 27C1702.1 27.55 1703.79 29.22 1704.75 30.7C1706.31 33.11 1706.53 36.86 1707 96L1704.75 95.98C1703.51 95.98 1702 95.64 1701.39 95.23C1700.64 94.74 1700.13 85.43 1699.83 66.5C1699.44 42.53 1699.13 38.1 1697.69 35.75C1696.76 34.24 1695.21 32.76 1694.25 32.48C1693.29 32.19 1689.57 32.98 1679.5 36.51L1679.25 66.26C1679.01 95.25 1678.95 96 1677 96C1675.9 96 1674.32 95.77 1673.5 95.5C1672.21 95.07 1672 90.28 1672 26L1675 26C1676.78 26 1678.2 26.61 1678.5 27.5C1678.77 28.32 1679.79 28.97 1680.75 28.93C1681.71 28.89 1684.3 27.99 1686.5 26.95C1689.26 25.63 1691.82 25.19 1694.75 25.52ZM1773.25 25.09C1785.83 25 1786 25.03 1786.02 27.25C1786.03 28.49 1785.49 30.06 1784.82 30.75C1784.15 31.44 1782.79 32 1781.8 32C1780.81 32 1780 32.22 1780 32.5C1780 32.77 1780.47 34.24 1781.05 35.75C1781.62 37.26 1782.12 45.02 1782.15 53C1782.19 64.37 1781.86 68.2 1780.6 70.75C1779.72 72.54 1777.65 74.67 1776 75.5C1774.35 76.32 1770.19 77.04 1766.75 77.1C1763.31 77.15 1759.37 77.51 1758 77.89C1755.77 78.52 1755.5 79.11 1755.5 83.5C1755.5 87.89 1755.77 88.48 1758 89.11C1759.37 89.49 1764.21 89.85 1768.75 89.9C1773.9 89.96 1778.13 90.56 1780 91.5C1782.22 92.61 1783.29 94.1 1784.11 97.25C1784.72 99.59 1784.98 104.42 1784.67 108C1784.32 112.16 1783.44 115.4 1782.22 117C1781.17 118.37 1778.55 120.08 1776.4 120.8C1774.07 121.57 1769.09 121.97 1764 121.8C1755.54 121.5 1755.5 121.49 1755.25 118.75C1755.11 117.24 1755.34 115.97 1755.75 115.93C1756.16 115.89 1760.36 115.55 1765.08 115.18C1770.43 114.76 1774.31 113.93 1775.38 113C1776.62 111.91 1777.07 110 1777.03 106C1777 102.97 1776.54 99.82 1776.02 99C1775.3 97.87 1772.17 97.35 1763.28 96.88C1756.8 96.54 1750.82 95.99 1750 95.66C1749.17 95.32 1748.17 94.03 1747.76 92.77C1747.36 91.52 1747.02 88.14 1747.01 85.25C1747.01 82.36 1747.67 78.65 1748.5 77C1749.32 75.35 1750.79 73.6 1751.75 73.11C1753.34 72.31 1753.25 71.95 1750.75 69.11C1748.94 67.07 1747.78 64.37 1747.37 61.25C1747.02 58.64 1746.95 51.77 1747.22 46C1747.5 40.04 1748.32 34.28 1749.11 32.67C1749.87 31.12 1751.62 29.13 1753 28.25C1754.37 27.38 1756.62 26.33 1758 25.92C1759.37 25.51 1766.24 25.13 1773.25 25.09ZM1755.98 37.25C1755.42 39.04 1754.98 44.77 1754.99 50C1755 55.22 1755.46 61.19 1756.01 63.25C1756.55 65.31 1758.01 67.68 1759.25 68.51C1760.49 69.34 1763.52 70.02 1766 70.02C1768.47 70.03 1771.4 69.39 1772.5 68.6C1774.35 67.27 1774.5 66.02 1774.5 51.62C1774.5 39.17 1774.2 35.76 1773 34.48C1772.17 33.61 1769.47 32.71 1767 32.48C1764.52 32.24 1761.26 32.49 1759.75 33.03C1757.93 33.67 1756.66 35.1 1755.98 37.25ZM840 26L842.25 26.02C843.49 26.02 845.17 26.46 846 26.98C847.29 27.79 847.5 32.82 847.5 96.5L844.5 96.15C842.85 95.96 841.16 95.62 840.75 95.4C840.34 95.18 840 79.47 840 60.5L840 26ZM1621 26L1624 26C1626 26 1627.33 26.67 1628 28C1628.61 29.21 1629 43 1629 96L1625.5 96C1622.68 96 1621.91 95.56 1621.51 93.75C1621.25 92.51 1621.02 76.76 1621.01 58.75L1621 26Z"/>
</svg>
